<?xml version="1.0" standalone="no"?>
<!DOCTYPE svg PUBLIC "-//W3C//DTD SVG 20010904//EN"
 "http://www.w3.org/TR/2001/REC-SVG-20010904/DTD/svg10.dtd">
<svg version="1.0" xmlns="http://www.w3.org/2000/svg"
 width="223.000000pt" height="223.000000pt" viewBox="0 0 223.000000 223.000000"
 preserveAspectRatio="xMidYMid meet">
<metadata>
Created by potrace 1.14, written by Peter Selinger 2001-2017
</metadata>
<g transform="translate(0.000000,223.000000) scale(0.100000,-0.100000)"
fill="#000000" stroke="none">
<path d="M950 2184 c-159 -31 -204 -46 -320 -103 -131 -65 -269 -175 -355
-285 -16 -22 -36 -45 -42 -52 -7 -7 -13 -16 -13 -19 0 -4 -10 -20 -21 -37 -62
-87 -112 -211 -144 -363 -20 -90 -23 -132 -20 -235 3 -133 30 -278 65 -356 11
-24 20 -48 20 -54 0 -23 124 -222 165 -266 5 -6 26 -28 46 -50 260 -286 699
-407 1084 -297 222 63 426 199 557 372 24 31 46 58 49 61 20 16 139 269 139
295 0 1 -280 1 -622 0 -343 0 -629 1 -635 3 -8 3 7 28 37 65 52 65 228 288
254 322 9 11 38 49 66 84 27 35 48 66 46 70 -2 3 -239 6 -525 5 -472 0 -521 1
-521 16 0 9 6 24 13 34 12 17 49 18 591 18 318 0 580 -2 582 -5 5 -5 -234
-319 -318 -420 -18 -22 -43 -54 -56 -73 l-23 -34 133 -1 c73 0 328 -1 566 -2
l432 -2 5 30 c3 17 7 44 10 60 10 58 13 201 5 250 -4 28 -11 74 -14 104 -10
86 -65 232 -132 350 -24 43 -138 187 -176 223 -47 44 -120 102 -164 130 -78
50 -238 124 -289 134 -11 2 -59 12 -107 23 -102 22 -271 25 -368 5z m297 -189
c24 -3 45 -7 48 -7 34 0 180 -54 255 -95 99 -54 142 -91 285 -244 8 -9 15 -21
15 -27 0 -7 3 -12 8 -12 4 0 12 -8 17 -19 6 -10 22 -41 37 -68 63 -117 98
-267 98 -420 0 -82 -2 -93 -17 -94 -79 -4 -664 -1 -668 3 -3 3 85 122 196 264
l202 259 -692 3 c-380 1 -691 5 -691 8 0 19 86 130 150 195 127 128 296 220
445 244 22 3 56 9 75 13 41 9 177 8 237 -3z m-164 -769 c-4 -7 -27 -35 -50
-62 -23 -27 -79 -94 -124 -149 -97 -119 -150 -184 -164 -199 -6 -6 -30 -36
-55 -66 -25 -30 -48 -56 -52 -58 -41 -18 64 -22 622 -22 347 0 630 -2 630 -5
0 -16 -91 -135 -145 -190 -112 -115 -322 -222 -475 -244 -61 -8 -265 -8 -315
1 -206 36 -420 171 -552 348 -133 179 -185 366 -174 628 l1 32 430 0 c363 0
430 -2 423 -14z"/>
</g>
</svg>
