<?xml version="1.0" encoding="utf-8"?>
<!-- Generator: Adobe Illustrator 24.3.0, SVG Export Plug-In . SVG Version: 6.00 Build 0)  -->
<svg version="1.1" id="Layer_1" xmlns="http://www.w3.org/2000/svg" xmlns:xlink="http://www.w3.org/1999/xlink" x="0px" y="0px"
	 viewBox="0 0 512.9 99.6" style="enable-background:new 0 0 512.9 99.6;" xml:space="preserve">
<style type="text/css">
	.st0{fill:#373A36;}
	.st1{fill:#FF6D2D;}
</style>
<g>
	<g>
		<path class="st0" d="M190.4,46.8v5.6c0,9.8-3.1,17.6-9.2,23.5c-6.1,5.8-13.8,8.7-23.1,8.7c-10.2,0-18.6-3.3-25.4-9.8
			c-6.6-6.6-10-14.6-10-24.2c0-9.5,3.3-17.6,9.9-24.2c6.6-6.6,14.8-9.9,24.4-9.9c12.3,0,23,6,28.7,15L173,38.8
			c-2.9-4.5-8.9-7.7-16-7.7c-5.5,0-10.2,1.9-13.9,5.5s-5.4,8.4-5.4,14.1c0,5.7,1.9,10.3,5.6,14c3.7,3.6,8.7,5.3,15,5.3
			c8.7,0,14.2-3.4,16.8-10.1h-17.5V46.8H190.4z"/>
		<path class="st0" d="M231.1,36.5h14v46.8h-14v-4.4c-2.8,3.8-7.3,5.7-13.4,5.7c-5,0-9.2-1.7-12.5-5.1c-3.3-3.5-5-8.1-5-14.2V36.5
			h14v26.7c0,5.5,3.4,8.5,8.1,8.5c5.3,0,8.7-3.3,8.7-9.6V36.5z"/>
		<path class="st0" d="M258.4,30c-3.3-3.4-3.3-8.6,0-11.9c3.4-3.4,8.6-3.4,11.9,0c3.4,3.3,3.4,8.5,0,11.9
			C267,33.2,261.7,33.2,258.4,30z M257.3,83.3V36.5h14v46.8H257.3z"/>
		<path class="st0" d="M283.4,83.3V15h14v68.4H283.4z"/>
		<path class="st0" d="M309.5,83.3V15h14v68.4H309.5z"/>
		<path class="st0" d="M348.1,65.5c1.6,4.4,5.3,6.6,11.2,6.6c3.8,0,6.8-1.2,9-3.6l11.2,6.5c-4.6,6.5-11.4,9.6-20.4,9.6
			c-7.9,0-14.1-2.3-18.9-7c-4.7-4.7-7-10.6-7-17.7c0-7,2.3-12.9,6.9-17.6c4.7-4.8,10.7-7.1,18-7.1c6.8,0,12.5,2.3,16.9,7.1
			c4.6,4.7,6.8,10.6,6.8,17.6c0,2-0.2,3.8-0.6,5.6H348.1z M368,55c-1.4-5-4.7-7.4-9.9-7.4c-5.4,0-8.8,2.4-10.2,7.4H368z"/>
		<path class="st0" d="M419.4,36.5H435l-17.3,46.8h-15.9l-17.3-46.8H400l9.7,29.7L419.4,36.5z"/>
		<path class="st0" d="M442.9,30c-3.3-3.4-3.3-8.6,0-11.9c3.4-3.4,8.6-3.4,11.9,0c3.4,3.3,3.4,8.5,0,11.9
			C451.5,33.2,446.2,33.2,442.9,30z M441.8,83.3V36.5h14v46.8H441.8z"/>
		<path class="st0" d="M507.8,40.4c3.4,3.5,5.1,8.1,5.1,14.2v28.7h-14V56.6c0-5.5-3.4-8.5-8.1-8.5c-5.3,0-8.7,3.3-8.7,9.6v25.6h-14
			V36.5h14v4.4c2.8-3.8,7.3-5.7,13.4-5.7C500.3,35.2,504.6,36.9,507.8,40.4z"/>
	</g>
	<circle class="st1" cx="75.4" cy="39.8" r="10"/>
	<path class="st1" d="M112.7,86.2L89.6,46.9c-2.6,5.2-8,8.8-14.2,8.8c-0.4,0-0.8,0-1.2-0.1l23.2,39.6c1.6,2.7,4.5,4.4,7.7,4.4
		c1.6,0,3.1-0.4,4.5-1.2c2-1.2,3.5-3.1,4.1-5.4C114.3,90.7,113.9,88.3,112.7,86.2z"/>
	<path class="st1" d="M57,58.2H45L34.8,76h13.3v5.9H24.4L57,26.4l4,6.7c2.5-5.5,8.1-9.3,14.5-9.3c0.2,0,0.5,0,0.7,0L64.6,4.3
		c-0.1-0.1-0.2-0.2-0.2-0.3c-0.2-0.3-0.4-0.5-0.6-0.8c-0.2-0.2-0.4-0.4-0.6-0.6C63,2.4,62.8,2.2,62.6,2c-0.2-0.2-0.5-0.4-0.8-0.6
		c-0.1-0.1-0.2-0.2-0.4-0.2c-0.1-0.1-0.2-0.1-0.3-0.2c-0.3-0.1-0.6-0.3-0.8-0.4c-0.3-0.1-0.5-0.2-0.8-0.3c-0.3-0.1-0.5-0.1-0.8-0.2
		c-0.3-0.1-0.6-0.1-0.9-0.1C57.3,0,56.7,0,56.1,0c-0.3,0-0.6,0.1-0.8,0.1c-0.3,0.1-0.6,0.1-0.8,0.2c-0.3,0.1-0.5,0.2-0.8,0.3
		c-0.3,0.1-0.6,0.2-0.9,0.4l-0.3,0.1c-0.1,0.1-0.2,0.2-0.4,0.3c-0.3,0.2-0.5,0.4-0.8,0.6c-0.2,0.2-0.4,0.4-0.6,0.6
		c-0.2,0.2-0.4,0.4-0.6,0.6C50,3.5,49.8,3.7,49.6,4c-0.1,0.1-0.2,0.2-0.3,0.4L1.2,86.2c-0.1,0.1-0.1,0.3-0.2,0.5
		c-0.1,0.3-0.3,0.6-0.4,0.9c-0.1,0.3-0.2,0.5-0.3,0.8S0.2,89,0.1,89.2c-0.1,0.3-0.1,0.6-0.1,1c0,0.2,0,0.3,0,0.5C0,90.9,0,91,0,91
		c0,0.3,0,0.6,0.1,1.1c0,0.2,0.1,0.4,0.1,0.7c0,0.1,0,0.2,0.1,0.3l0,0l0.2,0.7c0,0.1,0.1,0.3,0.1,0.4l0.1,0.3l0,0c0,0,0,0,0,0
		C0.9,94.6,1,94.8,1.1,95l0.1,0.2c0.1,0.2,0.2,0.3,0.3,0.4l0.1,0.2l0,0c0.1,0.1,0.1,0.1,0.2,0.2l0,0l0.1,0.1
		c0.1,0.1,0.2,0.2,0.3,0.3l0.2,0.2c0.1,0.1,0.1,0.1,0.2,0.2l0.3,0.3l0,0c0.2,0.2,0.3,0.3,0.6,0.5c0.2,0.2,0.5,0.4,0.7,0.5l0.3,0.2
		c0.3,0.2,0.6,0.3,1.1,0.5c0.4,0.2,0.9,0.3,1.5,0.5l0.4,0.1c0.6,0.1,1.1,0.2,1.6,0.2H57c4.9,0,8.9-4,8.9-8.9V67.1
		C65.9,62.2,61.9,58.2,57,58.2z M50.2,4.9C50.2,4.9,50.2,4.9,50.2,4.9L50.2,4.9L50.2,4.9z"/>
</g>
</svg>
